<svg width="24" height="24" viewBox="0 0 24 24" fill="none" xmlns="http://www.w3.org/2000/svg">
<path d="M1.45508 4.86938H5.09144" stroke="#DA0175" stroke-width="1.5" stroke-linecap="round" stroke-linejoin="round"/>
<path d="M1.45508 19.478H5.09144" stroke="#DA0175" stroke-width="1.5" stroke-linecap="round" stroke-linejoin="round"/>
<path d="M13.0918 4.86938H22.5463" stroke="#DA0175" stroke-width="1.5" stroke-linecap="round" stroke-linejoin="round"/>
<path d="M13.0918 19.478H22.5463" stroke="#DA0175" stroke-width="1.5" stroke-linecap="round" stroke-linejoin="round"/>
<path d="M1.45508 12.1738H12.3642" stroke="#DA0175" stroke-width="1.5" stroke-linecap="round" stroke-linejoin="round"/>
<path d="M20.3633 12.1738H22.5451" stroke="#DA0175" stroke-width="1.5" stroke-linecap="round" stroke-linejoin="round"/>
<path d="M9.09109 7.99988C10.8986 7.99988 12.3638 6.59834 12.3638 4.86945C12.3638 3.14056 10.8986 1.73901 9.09109 1.73901C7.28361 1.73901 5.81836 3.14056 5.81836 4.86945C5.81836 6.59834 7.28361 7.99988 9.09109 7.99988Z" stroke="#DA0175" stroke-width="1.5" stroke-linecap="round" stroke-linejoin="round"/>
<path d="M9.09109 22.6085C10.8986 22.6085 12.3638 21.207 12.3638 19.4781C12.3638 17.7492 10.8986 16.3477 9.09109 16.3477C7.28361 16.3477 5.81836 17.7492 5.81836 19.4781C5.81836 21.207 7.28361 22.6085 9.09109 22.6085Z" stroke="#DA0175" stroke-width="1.5" stroke-linecap="round" stroke-linejoin="round"/>
<path d="M16.3645 15.3041C18.172 15.3041 19.6373 13.9025 19.6373 12.1736C19.6373 10.4448 18.172 9.04321 16.3645 9.04321C14.557 9.04321 13.0918 10.4448 13.0918 12.1736C13.0918 13.9025 14.557 15.3041 16.3645 15.3041Z" stroke="#DA0175" stroke-width="1.5" stroke-linecap="round" stroke-linejoin="round"/>
</svg>
