<svg width="24" height="25" viewBox="0 0 24 25" fill="none" xmlns="http://www.w3.org/2000/svg">
<path fill-rule="evenodd" clip-rule="evenodd" d="M4.70711 3.79289C4.31658 3.40237 3.68342 3.40237 3.29289 3.79289C2.90237 4.18342 2.90237 4.81658 3.29289 5.20711L5.71706 7.63127C4.28639 8.70737 3.03925 10.1854 2.10557 12.0528C1.96481 12.3343 1.96481 12.6657 2.10557 12.9472C4.26379 17.2637 8.09687 19.5 12 19.5C13.5552 19.5 15.0992 19.145 16.5306 18.4448L19.2929 21.2071C19.6834 21.5976 20.3166 21.5976 20.7071 21.2071C21.0976 20.8166 21.0976 20.1834 20.7071 19.7929L4.70711 3.79289ZM15.0138 16.928L13.2934 15.2076C12.9018 15.3951 12.4631 15.5 12 15.5C10.3431 15.5 9 14.1569 9 12.5C9 12.0369 9.10495 11.5982 9.29237 11.2066L7.14838 9.06259C5.98778 9.8794 4.94721 11.0214 4.12966 12.5C5.99806 15.8792 9.03121 17.5 12 17.5C13.0134 17.5 14.0343 17.3112 15.0138 16.928Z" fill="#747488"/>
<path d="M18.5523 14.3955C19.0353 13.8402 19.4784 13.2088 19.8703 12.5C18.0019 9.12078 14.9687 7.5 12 7.5C11.888 7.5 11.7759 7.50231 11.6637 7.50693L9.87939 5.72258C10.5774 5.57451 11.2875 5.5 12 5.5C15.9031 5.5 19.7362 7.73635 21.8944 12.0528C22.0352 12.3343 22.0352 12.6657 21.8944 12.9472C21.3504 14.0352 20.7 14.991 19.9689 15.8121L18.5523 14.3955Z" fill="#747488"/>
</svg>
