<svg width="554" height="430" viewBox="0 0 554 430" fill="none" xmlns="http://www.w3.org/2000/svg">
<path d="M182.083 361.917L235.833 308.167M389.916 243.667C389.916 194.192 349.808 154.084 300.333 154.084C250.857 154.084 210.749 194.192 210.749 243.667C210.749 293.143 250.857 333.251 300.333 333.251" stroke="#E70000" stroke-opacity="0.45" stroke-width="4" stroke-linecap="round" stroke-linejoin="round"/>
<path d="M395.25 274.75L328.75 341.25" stroke="#F08889" stroke-width="4" stroke-linecap="round" stroke-linejoin="round"/>
<path d="M328.75 274.75L395.25 341.25" stroke="#F08889" stroke-width="4" stroke-linecap="round" stroke-linejoin="round"/>
<path d="M433.999 116.001C443.572 116.001 451.333 108.24 451.333 98.6673C451.333 89.0944 443.572 81.334 433.999 81.334C424.426 81.334 416.666 89.0944 416.666 98.6673C416.666 108.24 424.426 116.001 433.999 116.001Z" fill="#F5BDB2" stroke="#F2D6D0" stroke-linecap="round" stroke-linejoin="round"/>
<path d="M435.332 158.666H407.063C400.773 158.666 396.079 153.121 399.284 147.708C403.932 139.857 413.942 130.666 435.332 130.666" fill="#F5BDB2"/>
<path d="M435.332 158.666H407.063C400.773 158.666 396.079 153.121 399.284 147.708C403.932 139.857 413.942 130.666 435.332 130.666" stroke="#F2D6D0" stroke-linecap="round" stroke-linejoin="round"/>
<path d="M472.667 158.667L454 140" stroke="#F2D6D0" stroke-width="1.5" stroke-linecap="round" stroke-linejoin="round"/>
<path d="M454 158.667L472.667 140" stroke="#F2D6D0" stroke-width="1.5" stroke-linecap="round" stroke-linejoin="round"/>
</svg>
